<?xml version="1.0" encoding="UTF-8" standalone="no"?>
<!-- Created with Inkscape (http://www.inkscape.org/) -->

<svg
   width="256"
   height="256"
   viewBox="0 0 67.733332 67.733333"
   version="1.1"
   id="svg1"
   xml:space="preserve"
   inkscape:export-filename="bitmap-simple.png"
   inkscape:export-xdpi="96"
   inkscape:export-ydpi="96"
   inkscape:version="1.3 (0e150ed6c4, 2023-07-21)"
   sodipodi:docname="icon_source_vector.svg"
   xmlns:inkscape="http://www.inkscape.org/namespaces/inkscape"
   xmlns:sodipodi="http://sodipodi.sourceforge.net/DTD/sodipodi-0.dtd"
   xmlns:xlink="http://www.w3.org/1999/xlink"
   xmlns="http://www.w3.org/2000/svg"
   xmlns:svg="http://www.w3.org/2000/svg"
   xmlns:rdf="http://www.w3.org/1999/02/22-rdf-syntax-ns#"
   xmlns:cc="http://creativecommons.org/ns#"
   xmlns:dc="http://purl.org/dc/elements/1.1/"><title
     id="title5">Unique Icon Vector Source</title><sodipodi:namedview
     id="namedview1"
     pagecolor="#505050"
     bordercolor="#eeeeee"
     borderopacity="1"
     inkscape:showpageshadow="0"
     inkscape:pageopacity="0"
     inkscape:pagecheckerboard="0"
     inkscape:deskcolor="#505050"
     inkscape:document-units="mm"
     inkscape:zoom="2.8284271"
     inkscape:cx="73.715883"
     inkscape:cy="141.95169"
     inkscape:window-width="1920"
     inkscape:window-height="1017"
     inkscape:window-x="-8"
     inkscape:window-y="-8"
     inkscape:window-maximized="1"
     inkscape:current-layer="layer2" /><defs
     id="defs1"><linearGradient
       id="linearGradient29"
       inkscape:collect="always"><stop
         style="stop-color:#b1b1b1;stop-opacity:1;"
         offset="0"
         id="stop29" /><stop
         style="stop-color:#e2e2e2;stop-opacity:0;"
         offset="1"
         id="stop30" /></linearGradient><linearGradient
       id="linearGradient6"
       inkscape:collect="always"><stop
         style="stop-color:#000000;stop-opacity:0;"
         offset="0.69815195"
         id="stop6" /><stop
         style="stop-color:#000000;stop-opacity:0.49850747;"
         offset="1"
         id="stop7" /></linearGradient><radialGradient
       inkscape:collect="always"
       xlink:href="#linearGradient6"
       id="radialGradient7"
       cx="33.866665"
       cy="33.866665"
       fx="33.866665"
       fy="33.866665"
       r="28.442709"
       gradientUnits="userSpaceOnUse"
       gradientTransform="matrix(1.0046511,0,0,1.0046511,-0.15751861,-0.15751861)" /><linearGradient
       inkscape:collect="always"
       xlink:href="#linearGradient29"
       id="linearGradient30"
       x1="27.252083"
       y1="40.031665"
       x2="52.797811"
       y2="40.031665"
       gradientUnits="userSpaceOnUse" /></defs><g
     inkscape:label="Layer 1"
     inkscape:groupmode="layer"
     id="layer1"><circle
       style="display:inline;fill:#341627;fill-opacity:1;stroke-width:0.395308"
       id="circle2"
       cx="33.866665"
       cy="33.866665"
       r="31.75"
       inkscape:label="4 - Purple Circle" /><ellipse
       style="display:inline;fill:#f9f9f9;fill-opacity:1;fill-rule:evenodd;stroke-width:0.38499"
       id="path14"
       cx="25.379791"
       cy="43.829388"
       rx="15.789293"
       ry="14.836493"
       inkscape:label="3 - White Fill" /><path
       id="path28"
       style="display:inline;fill:#f9f9f9;fill-opacity:1;stroke-width:0.35413"
       inkscape:label="3b - Segment (White)"
       d="M 33.866667,5.4239583 V 33.866667 L 13.805876,53.927458 a 28.442709,28.442709 0 0 0 2.710429,2.390035 28.442709,28.442709 0 0 0 0.209289,0.156579 28.442709,28.442709 0 0 0 2.831869,1.903243 28.442709,28.442709 0 0 0 0.425297,0.232544 28.442709,28.442709 0 0 0 2.885095,1.433504 28.442709,28.442709 0 0 0 0.696081,0.259933 28.442709,28.442709 0 0 0 2.839104,0.973584 28.442709,28.442709 0 0 0 1.069702,0.232544 28.442709,28.442709 0 0 0 2.616894,0.529683 28.442709,28.442709 0 0 0 3.777031,0.270268 28.442709,28.442709 0 0 0 28.442708,-28.442708 28.442709,28.442709 0 0 0 -0.285254,-3.988387 28.442709,28.442709 0 0 0 -0.01137,-0.0925 28.442709,28.442709 0 0 0 -0.837158,-3.847311 28.442709,28.442709 0 0 0 -0.03824,-0.137976 28.442709,28.442709 0 0 0 -1.360641,-3.647839 28.442709,28.442709 0 0 0 -0.07545,-0.170015 28.442709,28.442709 0 0 0 -1.846398,-3.382223 28.442709,28.442709 0 0 0 -0.12299,-0.19482 28.442709,28.442709 0 0 0 -2.295984,-3.06648 28.442709,28.442709 0 0 0 -0.15503,-0.179834 28.442709,28.442709 0 0 0 -2.706811,-2.706811 28.442709,28.442709 0 0 0 -0.179834,-0.155029 28.442709,28.442709 0 0 0 -3.06648,-2.295984 28.442709,28.442709 0 0 0 -0.19482,-0.1229902 28.442709,28.442709 0 0 0 -3.382222,-1.8463989 28.442709,28.442709 0 0 0 -0.170016,-0.075448 28.442709,28.442709 0 0 0 -3.647839,-1.3606405 28.442709,28.442709 0 0 0 -0.137976,-0.038241 28.442709,28.442709 0 0 0 -3.84731,-0.8371582 28.442709,28.442709 0 0 0 -0.0925,-0.011369 28.442709,28.442709 0 0 0 -3.988387,-0.2852539 z" /><path
       id="path13"
       style="display:inline;fill:#f86c1f;fill-opacity:1;stroke-width:0.35413"
       inkscape:label="3a - Segment (Orange)"
       d="M 13.805876,53.927458 33.866667,33.866667 V 5.4239583 A 28.442709,28.442709 0 0 0 5.4239583,33.866667 28.442709,28.442709 0 0 0 13.805876,53.927458 Z" /><circle
       style="display:inline;fill:url(#radialGradient7);fill-opacity:1;fill-rule:evenodd;stroke-width:0.355777"
       id="circle6"
       cx="33.866665"
       cy="33.866665"
       r="28.575001"
       inkscape:label="3 - Circular Fade" /><path
       id="circle30"
       style="display:inline;fill:url(#radialGradient7);fill-opacity:1;fill-rule:evenodd;stroke-width:0.355777"
       inkscape:label="3 - Stylised Fade"
       d="M 33.866667,5.2916667 A 28.575001,28.575001 0 0 0 5.2916667,33.866667 28.575001,28.575001 0 0 0 7.9152791,45.812708 41.771026,30.801305 80.142859 0 1 26.520862,13.358358 41.771026,30.801305 80.142859 0 1 61.880977,28.239103 28.575001,28.575001 0 0 0 33.866667,5.2916667 Z" /><path
       id="circle3"
       style="display:inline;fill:#3c3947;fill-opacity:0.379562;stroke-width:0.35413"
       inkscape:label="2 - Shadow"
       d="M 47.907153,19.84375 19.84375,47.907153 34.22065,62.284054 A 28.442709,28.442709 0 0 0 62.284054,34.22065 Z" /><circle
       style="display:inline;fill:#f9f9f9;fill-opacity:1;stroke-width:0.247068"
       id="circle4"
       cx="33.866665"
       cy="33.866665"
       r="19.84375"
       inkscape:label="2 - Smaller White Circle" /><path
       id="circle29"
       style="display:inline;fill:url(#linearGradient30);fill-opacity:1;stroke-width:0.247068"
       inkscape:label="1 - Shadow"
       d="M 40.278162,27.252083 27.252083,40.371696 39.713855,52.811247 A 19.84375,19.84375 0 0 0 52.797811,39.749512 Z" /><circle
       style="display:inline;fill:#3a1c2a;fill-opacity:1;stroke-width:0.115298"
       id="circle5"
       cx="33.866665"
       cy="33.866665"
       r="9.260417"
       inkscape:label="1 - Tiny Circle" /></g><g
     inkscape:groupmode="layer"
     id="layer2"
     inkscape:label="Transformations and Maths"
     style="display:none"><path
       id="path11"
       style="display:inline;fill:#800000;fill-rule:evenodd;stroke-width:0.317538"
       inkscape:label="Red Shape 45 (OG)"
       d="M 0,0 V 33.866667 67.733333 L 33.866667,33.866667 V 0 Z" /><path
       id="rect10-7"
       style="display:inline;fill:#800000;fill-rule:evenodd;stroke-width:0.317538"
       d="M 0,33.866667 H 33.866665 L 0,67.733332 Z"
       sodipodi:nodetypes="cccc"
       inkscape:label="Red Triangle (OG)" /><rect
       style="display:inline;fill:#800000;fill-opacity:1;fill-rule:evenodd;stroke-width:0.317538"
       id="rect10"
       width="33.866665"
       height="33.866665"
       x="0"
       y="0"
       inkscape:label="Red Square (OG)" /><circle
       style="display:inline;fill:#cccccc;fill-opacity:1;stroke-width:0.35413"
       id="circle13"
       cx="33.866665"
       cy="33.866665"
       r="28.442709"
       inkscape:label="3 - White Circle" /><rect
       style="display:inline;fill:#6f5d7c;fill-opacity:0.5;fill-rule:evenodd;stroke-width:0.679385"
       id="rect28"
       width="39.6875"
       height="39.6875"
       x="47.907051"
       y="-19.84375"
       transform="rotate(45)"
       inkscape:label="2 - Shadow" /><rect
       style="display:inline;fill:#008000;fill-opacity:1;fill-rule:evenodd;stroke-width:0.795593"
       id="rect15"
       width="18.487995"
       height="36.975773"
       x="-9.1684532"
       y="-84.759727"
       transform="matrix(-0.70458142,0.70962314,-0.70773671,-0.70647629,0,0)"
       inkscape:label="1 - Shadow" /></g><metadata
     id="metadata5"><rdf:RDF><cc:Work
         rdf:about=""><dc:title>Unique Icon Vector Source</dc:title></cc:Work></rdf:RDF></metadata></svg>
